<?xml version="1.0" standalone="no"?>
<!DOCTYPE svg PUBLIC "-//W3C//DTD SVG 20010904//EN"
 "http://www.w3.org/TR/2001/REC-SVG-20010904/DTD/svg10.dtd">
<svg version="1.0" xmlns="http://www.w3.org/2000/svg"
 width="1024.000000pt" height="1024.000000pt" viewBox="0 0 1024.000000 1024.000000"
 preserveAspectRatio="xMidYMid meet">
<metadata>
Created by potrace 1.14, written by Peter Selinger 2001-2017
</metadata>
<g transform="translate(0.000000,1024.000000) scale(0.100000,-0.100000)"
fill="#000000" stroke="none">
<path d="M0 5120 l0 -5120 5120 0 5120 0 0 5120 0 5120 -5120 0 -5120 0 0
-5120z m4321 1613 c488 -983 732 -1486 779 -1608 13 -33 26 -63 30 -68 3 -4
53 91 109 210 57 120 359 725 670 1345 l566 1128 373 0 c352 0 372 -1 364 -17
-5 -10 -404 -759 -886 -1665 l-876 -1647 0 -1060 0 -1061 -335 0 -335 0 0
1076 0 1077 -846 1586 c-466 872 -862 1614 -881 1649 l-35 62 401 0 402 0 500
-1007z"/>
</g>
</svg>
