<?xml version="1.0" standalone="no"?>
<!DOCTYPE svg PUBLIC "-//W3C//DTD SVG 20010904//EN"
 "http://www.w3.org/TR/2001/REC-SVG-20010904/DTD/svg10.dtd">
<svg version="1.0" xmlns="http://www.w3.org/2000/svg"
 width="512.000000pt" height="512.000000pt" viewBox="0 0 512.000000 512.000000"
 preserveAspectRatio="xMidYMid meet">
<metadata>
Created by potrace 1.14, written by Peter Selinger 2001-2017
</metadata>
<g transform="translate(0.000000,512.000000) scale(0.100000,-0.100000)"
fill="#000000" stroke="none">
<path d="M0 2560 l0 -2560 2560 0 2560 0 0 2560 0 2560 -2560 0 -2560 0 0
-2560z m1908 1298 c9 -13 613 -1238 643 -1307 l15 -33 339 676 340 676 177 0
c98 0 178 -2 178 -4 0 -2 -198 -376 -440 -831 l-440 -826 0 -530 0 -529 -165
0 -165 0 0 542 0 542 -432 810 c-238 445 -434 813 -436 818 -6 14 374 10 386
-4z"/>
</g>
</svg>
